<svg xmlns="http://www.w3.org/2000/svg" xmlns:v="https://svgstorm.com"
viewBox = "0 0 256 256"
width="256"
height="256">
<g fill="None" fill-opacity="0.0" stroke="#000000" stroke-opacity="0.00" stroke-width="0.3"><path d="
M 0.00 256.00 
L 256.00 256.00
L 256.00 0.00
L 0.00 0.00
L 0.00 256.00
M 127.00 58.00 
C 127.05 58.35 127.90 58.74 128.00 59.00
C 129.70 52.85 127.33 45.74 134.00 41.00
C 132.87 49.71 137.64 58.32 146.08 61.92 C 154.51 65.53 162.45 61.85 173.00 62.00 C 183.55 62.15 191.12 65.40 199.08 70.92 C 207.05 76.44 211.10 84.28 213.00 93.00
C 215.00 86.18 218.20 95.68 223.70 98.30 C 229.19 100.93 238.09 103.39 245.00 102.00
C 231.02 102.42 215.15 95.16 212.07 79.93 C 209.00 64.70 225.41 48.84 240.00 56.00
C 232.52 47.55 220.39 57.54 213.00 62.00
C 213.21 67.90 209.33 74.84 211.00 82.00
C 207.26 76.24 201.66 70.73 196.00 67.00
C 201.43 66.68 208.25 67.05 212.00 63.00
C 189.11 75.24 157.65 49.06 173.00 25.00
C 165.82 30.54 169.08 43.70 169.00 51.00
C 168.93 51.27 169.72 52.06 170.00 52.00
C 173.21 51.28 175.73 58.41 179.00 61.00
C 173.03 60.27 168.00 60.28 162.00 61.00
C 162.08 59.74 164.06 60.44 164.00 59.00
C 165.39 56.34 167.81 54.97 168.00 53.00
C 163.47 62.96 149.74 64.02 141.77 58.23 C 133.80 52.44 133.00 35.37 145.00 34.00
C 141.64 29.84 149.15 26.77 153.70 23.70 C 158.24 20.63 164.79 18.68 170.22 16.22 C 175.66 13.77 183.67 16.02 188.07 15.07 C 192.48 14.13 205.53 20.71 201.00 16.00
C 209.77 17.17 219.88 23.19 226.70 28.30 C 233.52 33.42 232.44 34.14 236.75 38.25 C 241.06 42.35 241.89 46.39 244.30 49.70 C 246.71 53.00 250.15 60.86 249.98 63.02 C 249.80 65.19 247.23 74.55 250.00 73.00
C 249.18 72.01 250.62 69.16 250.00 68.00
C 251.84 68.49 252.18 70.35 252.00 72.00
C 253.36 80.29 254.40 97.84 246.00 100.00
C 253.58 103.36 245.37 114.73 242.70 121.69 C 240.02 128.66 234.23 135.50 229.75 141.75 C 225.27 148.00 219.54 154.40 214.25 160.25 C 208.95 166.10 203.05 170.82 197.75 176.75 C 192.46 182.69 186.31 187.13 180.75 192.75 C 175.19 198.38 168.86 203.65 163.25 209.25 C 157.64 214.84 151.76 219.48 146.25 225.25 C 140.74 231.01 133.68 235.37 129.00 242.00
C 90.05 204.98 42.57 170.30 15.00 124.00
C 16.28 123.47 16.86 124.97 18.00 125.00
C 17.70 124.62 17.29 123.23 17.00 123.00
C 8.36 118.34 7.28 107.44 5.02 97.98 C 2.77 88.51 4.21 75.76 4.98 66.98 C 5.74 58.19 12.08 48.91 17.00 42.00
C 17.45 46.30 15.96 51.12 18.00 55.00
C 17.99 54.97 19.06 54.29 19.00 54.00
C 13.72 29.08 46.21 20.37 58.92 40.08 C 71.63 59.79 55.55 83.83 34.00 85.00
C 31.14 85.46 28.80 85.46 26.00 85.00
C 18.84 84.61 12.85 82.03 7.00 78.00
C 11.49 84.92 21.92 86.27 30.00 87.00
C 28.78 89.01 24.94 89.24 25.00 92.00
C 30.12 89.21 35.97 85.95 41.10 85.10 C 46.23 84.24 52.59 77.67 56.00 80.00
C 55.74 75.95 59.31 73.30 61.00 70.00
C 61.89 68.77 62.97 67.00 64.00 66.00
C 60.98 63.99 66.04 55.36 64.00 52.00
C 67.56 53.38 69.61 58.98 74.00 60.00
C 73.29 61.63 70.62 61.29 70.00 63.00
C 79.76 60.32 90.85 61.97 97.25 70.75 C 103.64 79.54 98.43 90.76 92.00 97.00
C 101.66 93.32 99.74 81.77 103.00 75.00
C 94.20 68.96 93.70 54.94 100.00 47.00
C 97.90 47.12 98.69 46.35 98.00 45.00
C 93.96 37.14 88.48 29.79 79.26 35.26 C 70.03 40.72 76.66 57.12 87.07 51.07 C 97.49 45.02 77.07 31.31 81.00 47.00
C 81.10 33.55 94.44 46.94 85.30 50.30 C 76.16 53.66 73.73 41.13 79.75 36.75 C 85.78 32.37 92.72 35.41 95.77 42.23 C 98.82 49.05 94.49 56.47 87.77 59.77 C 81.05 63.07 73.78 59.22 68.75 54.25 C 63.72 49.28 62.13 39.23 65.77 32.77 C 69.41 26.32 73.55 21.02 81.00 20.00
C 70.71 18.08 62.27 32.44 62.00 42.00
C 56.33 30.03 41.35 26.18 30.00 28.00
C 45.43 15.19 66.55 11.37 86.00 16.00
C 77.79 20.61 91.68 18.15 96.23 20.77 C 100.78 23.39 106.76 25.78 110.25 29.75 C 113.73 33.72 120.13 36.17 121.77 41.23 C 123.41 46.29 128.98 50.41 127.00 58.00
M 95.00 56.00 
C 95.00 59.33 95.00 62.67 95.00 66.00
C 91.94 64.73 89.29 62.55 86.00 62.00
C 88.71 59.88 92.10 58.13 95.00 56.00 Z"/>
</g>
<g fill="None" fill-opacity="0.0" stroke="#EB0303" stroke-opacity="0.95" stroke-width="0.3"><path d="
M 98.00 45.00 
C 98.27 45.25 99.57 45.17 100.00 45.00
C 104.85 43.04 110.62 37.23 116.00 41.00
C 110.77 40.32 106.37 42.74 102.00 45.00
C 101.49 45.43 100.44 46.55 100.00 47.00
C 93.70 54.94 94.20 68.96 103.00 75.00
C 99.74 81.77 101.66 93.32 92.00 97.00
C 98.43 90.76 103.64 79.54 97.25 70.75 C 90.85 61.97 79.76 60.32 70.00 63.00
C 67.87 63.58 67.05 64.01 65.00 66.00
C 63.84 67.12 62.00 68.86 61.00 70.00
C 59.31 73.30 55.74 75.95 56.00 80.00
C 52.59 77.67 46.23 84.24 41.10 85.10 C 35.97 85.95 30.12 89.21 25.00 92.00
C 24.94 89.24 28.78 89.01 30.00 87.00
C 21.92 86.27 11.49 84.92 7.00 78.00
C 12.85 82.03 18.84 84.61 26.00 85.00
C 28.61 85.14 31.39 85.14 34.00 85.00
C 55.55 83.83 71.63 59.79 58.92 40.08 C 46.21 20.37 13.72 29.08 19.00 54.00
C 20.47 54.27 22.06 57.72 22.00 59.00
C 27.26 60.11 32.13 69.14 39.00 64.00
C 33.56 68.84 25.42 64.44 21.00 60.00
C 19.98 59.57 18.31 55.82 18.00 55.00
C 15.96 51.12 17.45 46.30 17.00 42.00
C 12.08 48.91 5.74 58.19 4.98 66.98 C 4.21 75.76 2.77 88.51 5.02 97.98 C 7.28 107.44 8.36 118.34 17.00 123.00
C 18.59 123.86 20.61 125.39 22.00 126.00
C 26.55 126.43 29.55 127.94 34.22 127.22 C 38.89 126.50 41.69 124.35 46.00 123.00
C 47.25 121.17 49.16 120.23 51.00 119.00
C 51.19 121.88 47.67 122.41 46.00 124.00
C 40.50 130.15 28.03 129.91 21.00 127.00
C 19.75 126.48 18.77 126.00 18.00 125.00
C 16.86 124.97 16.28 123.47 15.00 124.00
C 42.57 170.30 90.05 204.98 129.00 242.00
C 133.68 235.37 140.74 231.01 146.25 225.25 C 151.76 219.48 157.64 214.84 163.25 209.25 C 168.86 203.65 175.19 198.38 180.75 192.75 C 186.31 187.13 192.46 182.69 197.75 176.75 C 203.05 170.82 208.95 166.10 214.25 160.25 C 219.54 154.40 225.27 148.00 229.75 141.75 C 234.23 135.50 240.02 128.66 242.70 121.69 C 245.37 114.73 253.58 103.36 246.00 100.00
C 254.40 97.84 253.36 80.29 252.00 72.00
C 251.84 72.47 250.26 72.72 250.00 73.00
C 247.23 74.55 249.80 65.19 249.98 63.02 C 250.15 60.86 246.71 53.00 244.30 49.70 C 241.89 46.39 241.06 42.35 236.75 38.25 C 232.44 34.14 233.52 33.42 226.70 28.30 C 219.88 23.19 209.77 17.17 201.00 16.00
C 205.53 20.71 192.48 14.13 188.07 15.07 C 183.67 16.02 175.66 13.77 170.22 16.22 C 164.79 18.68 158.24 20.63 153.70 23.70 C 149.15 26.77 141.64 29.84 145.00 34.00
C 133.00 35.37 133.80 52.44 141.77 58.23 C 149.74 64.02 163.47 62.96 168.00 53.00
C 168.16 51.41 168.36 52.07 169.00 51.00
C 169.08 43.70 165.82 30.54 173.00 25.00
C 157.65 49.06 189.11 75.24 212.00 63.00
C 208.25 67.05 201.43 66.68 196.00 67.00
C 201.66 70.73 207.26 76.24 211.00 82.00
C 209.33 74.84 213.21 67.90 213.00 62.00
C 220.39 57.54 232.52 47.55 240.00 56.00
C 225.41 48.84 209.00 64.70 212.07 79.93 C 215.15 95.16 231.02 102.42 245.00 102.00
C 238.09 103.39 229.19 100.93 223.70 98.30 C 218.20 95.68 215.00 86.18 213.00 93.00
C 211.10 84.28 207.05 76.44 199.08 70.92 C 191.12 65.40 183.55 62.15 173.00 62.00 C 162.45 61.85 154.51 65.53 146.08 61.92 C 137.64 58.32 132.87 49.71 134.00 41.00
C 127.33 45.74 129.70 52.85 128.00 59.00
C 128.68 60.70 126.70 61.20 126.00 62.00
C 117.00 72.28 101.84 63.74 108.00 51.00
C 112.84 49.20 121.50 48.19 120.99 56.01 C 120.49 63.83 107.77 61.25 112.00 54.00
C 110.03 63.73 124.45 58.19 118.69 52.31 C 112.93 46.42 104.55 56.13 109.26 61.74 C 113.96 67.36 120.21 67.07 125.00 62.00
C 124.70 61.03 125.31 57.66 127.00 58.00
C 128.98 50.41 123.41 46.29 121.77 41.23 C 120.13 36.17 113.73 33.72 110.25 29.75 C 106.76 25.78 100.78 23.39 96.23 20.77 C 91.68 18.15 77.79 20.61 86.00 16.00
C 66.55 11.37 45.43 15.19 30.00 28.00
C 41.35 26.18 56.33 30.03 62.00 42.00
C 62.27 32.44 70.71 18.08 81.00 20.00
C 73.55 21.02 69.41 26.32 65.77 32.77 C 62.13 39.23 63.72 49.28 68.75 54.25 C 73.78 59.22 81.05 63.07 87.77 59.77 C 94.49 56.47 98.82 49.05 95.77 42.23 C 92.72 35.41 85.78 32.37 79.75 36.75 C 73.73 41.13 76.16 53.66 85.30 50.30 C 94.44 46.94 81.10 33.55 81.00 47.00
C 77.07 31.31 97.49 45.02 87.07 51.07 C 76.66 57.12 70.03 40.72 79.26 35.26 C 88.48 29.79 93.96 37.14 98.00 45.00
M 183.00 16.00 
C 179.70 18.38 176.24 21.27 173.00 24.00
C 174.16 19.90 178.84 16.36 183.00 16.00
M 210.00 37.00 
C 208.46 31.53 209.37 24.28 204.00 20.00
C 210.99 21.94 210.12 31.03 210.00 37.00
M 200.00 31.00 
C 193.94 23.70 182.60 29.56 184.00 39.00
C 178.81 30.15 195.49 20.03 200.00 31.00
M 157.00 37.00 
C 157.96 37.63 159.57 38.46 159.00 40.00
C 159.32 41.95 158.76 44.04 159.00 46.00
C 157.13 44.86 158.39 41.87 158.00 40.00
C 155.64 39.33 156.15 37.05 155.00 36.00
C 152.22 34.40 149.23 33.19 146.00 33.00
C 149.17 30.87 155.07 33.58 157.00 37.00
M 191.00 32.00 
C 189.72 34.47 190.87 36.32 191.00 39.00
C 188.91 37.63 187.78 32.99 191.00 32.00
M 201.00 32.00 
C 202.07 37.71 197.24 42.21 192.00 40.00
C 197.07 39.79 199.66 36.66 201.00 32.00
M 149.00 48.00 
C 146.13 48.54 145.68 45.01 146.00 43.00
C 148.80 42.55 147.40 47.41 151.00 46.00
C 156.59 38.22 140.83 38.68 144.00 47.00
C 138.10 32.74 164.10 42.44 149.00 48.00
M 189.00 46.00 
C 187.02 44.46 184.09 42.74 184.00 40.00
C 185.98 41.54 188.91 43.26 189.00 46.00
M 40.00 64.00 
C 44.97 59.83 48.83 52.88 44.23 46.77 C 39.63 40.66 31.18 40.46 29.03 49.03 C 26.88 57.59 44.36 58.43 39.00 48.00
C 46.96 57.04 28.36 61.10 28.02 50.98 C 27.69 40.85 38.37 38.51 44.25 44.75 C 50.13 50.99 48.28 61.00 40.00 64.00
M 207.00 42.00 
C 203.62 47.86 195.93 49.35 190.00 47.00
C 195.45 47.42 202.10 45.91 207.00 42.00
M 158.00 47.00 
C 156.31 52.87 146.51 54.26 144.00 48.00
C 148.61 52.23 154.05 50.74 158.00 47.00
M 233.00 69.00 
C 227.85 80.04 244.70 76.65 238.74 68.26 C 232.79 59.87 224.18 70.30 226.00 77.00
C 220.88 69.45 234.69 56.93 240.75 68.25 C 246.81 79.56 223.27 79.86 233.00 69.00
M 142.00 71.00 
C 140.92 72.78 139.50 73.75 138.00 75.00
C 136.85 75.95 135.52 76.47 135.00 78.00
C 134.85 78.45 135.00 79.00 135.00 79.00
C 140.37 76.55 148.72 78.17 154.00 80.00
C 155.15 80.40 156.77 80.28 157.00 82.00
C 158.12 82.17 160.04 83.38 161.00 84.00
C 162.05 84.68 162.30 85.06 163.00 86.00
C 164.80 87.85 167.24 88.68 169.00 90.00
C 164.75 90.13 163.07 93.87 160.00 96.00
C 159.40 97.41 158.04 99.14 157.00 100.00
C 157.53 110.02 151.86 122.31 163.00 130.00
C 153.67 123.55 152.25 113.42 151.00 103.00
C 153.90 108.68 154.92 104.69 156.00 100.00
C 155.92 98.36 157.42 96.45 159.00 96.00
C 160.05 94.79 165.05 90.10 165.00 89.00
C 163.46 88.18 162.22 86.91 161.00 86.00
C 159.78 85.08 157.98 84.19 157.00 83.00
C 155.98 82.49 153.88 81.36 153.00 81.00
C 146.36 80.40 140.93 78.19 134.00 80.00
C 133.79 80.31 133.35 80.89 133.00 81.00
C 120.88 84.80 112.63 97.39 115.00 111.00
C 112.17 110.75 110.70 114.00 108.00 114.00
C 117.84 106.57 112.00 88.21 126.00 83.00
C 122.91 80.81 117.84 82.57 114.00 82.00
C 123.96 81.79 133.45 78.00 141.00 71.00
C 141.75 70.03 142.03 69.69 143.00 69.00
C 144.23 68.13 145.36 66.86 147.00 67.00
C 146.07 69.17 143.95 70.11 142.00 71.00
M 90.00 86.00 
C 90.85 75.05 78.37 72.42 72.00 80.00
C 76.38 69.54 94.06 74.08 90.00 86.00
M 249.00 76.00 
C 246.77 86.10 229.81 88.31 226.00 78.00
C 232.06 85.80 243.73 84.59 249.00 76.00
M 113.00 80.00 
C 110.94 82.26 105.31 79.81 105.00 77.00
C 107.67 78.06 109.92 80.26 113.00 80.00
M 55.00 81.00 
C 52.10 94.04 61.48 107.94 51.00 118.00
C 58.50 108.10 54.20 89.93 41.00 88.00
C 46.31 85.03 51.22 92.28 54.00 96.00
C 53.39 91.08 51.90 85.14 55.00 81.00
M 72.00 81.00 
C 67.99 91.61 81.16 101.45 91.00 97.00
C 81.99 104.71 64.45 90.96 72.00 81.00
M 79.00 81.00 
C 78.90 87.38 74.67 84.36 79.00 81.00
M 89.00 87.00 
C 88.81 91.81 78.51 91.14 78.00 87.00
C 81.23 89.31 86.00 90.07 89.00 87.00
M 170.00 115.00 
C 178.65 122.43 191.56 117.66 191.99 105.99 C 192.42 94.32 181.09 87.26 170.00 89.00
C 181.23 84.80 193.60 93.71 193.65 105.69 C 193.70 117.68 177.13 125.59 170.00 115.00
M 25.00 93.00 
C 19.67 100.87 25.08 113.08 35.00 113.00
C 25.25 116.70 16.14 99.32 25.00 93.00
M 211.00 120.00 
C 209.84 122.30 208.64 123.25 207.00 125.00
C 205.42 126.69 203.57 128.42 202.00 130.00
C 201.26 130.96 200.92 131.30 200.00 132.00
C 198.11 133.45 195.77 135.32 193.00 135.00
C 195.18 132.89 198.60 132.09 201.00 130.00
C 202.31 127.85 204.44 126.70 206.00 125.00
C 206.71 124.07 207.54 123.05 208.00 122.00
C 208.52 120.82 208.25 120.98 209.00 120.00
C 214.50 112.85 214.26 103.13 214.00 94.00
C 216.39 102.14 215.11 112.42 211.00 120.00
M 40.00 97.00 
C 37.12 97.57 29.78 95.96 30.03 102.03 C 30.27 108.09 39.92 106.26 37.00 101.00
C 42.00 104.67 33.25 111.39 30.08 104.92 C 26.92 98.44 33.52 93.20 40.00 97.00
M 150.00 100.00 
C 153.66 103.13 147.42 99.24 147.00 99.00
C 140.23 95.91 134.44 97.30 129.00 102.00
C 133.09 93.91 144.17 94.52 150.00 100.00
M 36.00 113.00 
C 41.83 110.02 44.41 104.16 41.00 98.00
C 46.61 102.27 43.54 112.96 36.00 113.00
M 179.00 99.00 
C 172.91 100.14 167.11 105.81 169.00 113.00
C 165.03 106.90 171.38 97.24 179.00 99.00
M 184.00 110.00 
C 182.34 107.03 183.54 102.44 180.00 100.00
C 184.87 100.59 185.09 106.37 184.00 110.00
M 129.00 103.00 
C 127.91 107.66 130.37 111.23 132.00 115.00
C 127.77 113.03 126.70 106.35 129.00 103.00
M 133.00 115.00 
C 138.00 117.42 145.35 113.48 143.00 107.00 C 140.65 100.52 131.49 105.48 135.00 111.00
C 128.54 103.85 141.75 99.63 143.97 107.03 C 146.20 114.42 138.78 119.60 133.00 115.00
M 60.00 105.00 
C 63.77 106.71 66.97 111.63 70.00 114.00
C 80.02 121.83 96.43 120.08 107.00 114.00
C 98.39 122.79 79.18 121.91 69.00 115.00
C 67.03 113.75 66.12 112.81 64.00 111.00
C 62.51 109.73 55.63 103.01 60.00 105.00
M 127.00 126.00 
C 121.08 123.80 115.71 118.44 115.00 112.00
C 117.77 117.54 122.42 121.66 127.00 126.00
M 151.00 119.00 
C 146.14 126.92 136.58 129.94 128.00 127.00
C 136.09 128.20 144.59 124.78 151.00 119.00
M 172.00 135.00 
C 169.06 134.70 164.28 133.56 164.00 130.00
C 166.35 132.25 169.93 132.75 172.00 135.00
M 179.00 136.00 
C 180.69 135.94 184.36 135.93 186.00 136.00
C 188.19 135.87 189.76 134.97 192.00 135.00
C 187.02 138.92 178.88 136.69 173.00 136.00
C 174.37 133.62 177.07 136.06 179.00 136.00 Z"/>
</g>
<g fill="None" fill-opacity="0.0" stroke="#500000" stroke-opacity="0.11" stroke-width="0.3"><path d="
M 183.00 16.00 
C 178.84 16.36 174.16 19.90 173.00 24.00
C 176.24 21.27 179.70 18.38 183.00 16.00 Z"/>
</g>
<g fill="None" fill-opacity="0.0" stroke="#170000" stroke-opacity="0.03" stroke-width="0.3"><path d="
M 210.00 37.00 
C 210.12 31.03 210.99 21.94 204.00 20.00
C 209.37 24.28 208.46 31.53 210.00 37.00 Z"/>
</g>
<g fill="None" fill-opacity="0.0" stroke="#280000" stroke-opacity="0.12" stroke-width="0.3"><path d="
M 200.00 31.00 
C 195.49 20.03 178.81 30.15 184.00 39.00
C 182.60 29.56 193.94 23.70 200.00 31.00 Z"/>
</g>
<g fill="None" fill-opacity="0.0" stroke="#170000" stroke-opacity="0.04" stroke-width="0.3"><path d="
M 155.00 36.00 
C 155.62 36.36 156.44 36.63 157.00 37.00
C 155.07 33.58 149.17 30.87 146.00 33.00
C 149.23 33.19 152.22 34.40 155.00 36.00 Z"/>
</g>
<g fill="None" fill-opacity="0.0" stroke="#180000" stroke-opacity="0.02" stroke-width="0.3"><path d="
M 191.00 32.00 
C 187.78 32.99 188.91 37.63 191.00 39.00
C 190.87 36.32 189.72 34.47 191.00 32.00 Z"/>
</g>
<g fill="None" fill-opacity="0.0" stroke="#0E0000" stroke-opacity="0.05" stroke-width="0.3"><path d="
M 201.00 32.00 
C 199.66 36.66 197.07 39.79 192.00 40.00
C 197.24 42.21 202.07 37.71 201.00 32.00 Z"/>
</g>
<g fill="None" fill-opacity="0.0" stroke="#D40000" stroke-opacity="0.24" stroke-width="0.3"><path d="
M 158.00 40.00 
C 158.46 40.13 159.00 40.00 159.00 40.00
C 159.57 38.46 157.96 37.63 157.00 37.00
C 156.44 36.63 155.62 36.36 155.00 36.00
C 156.15 37.05 155.64 39.33 158.00 40.00 Z"/>
</g>
<g fill="None" fill-opacity="0.0" stroke="#0D0000" stroke-opacity="0.04" stroke-width="0.3"><path d="
M 151.00 46.00 
C 150.86 46.20 149.11 47.98 149.00 48.00
C 164.10 42.44 138.10 32.74 144.00 47.00
C 140.83 38.68 156.59 38.22 151.00 46.00 Z"/>
</g>
<g fill="None" fill-opacity="0.0" stroke="#130000" stroke-opacity="0.04" stroke-width="0.3"><path d="
M 100.00 45.00 
C 101.00 45.19 100.43 45.60 102.00 45.00
C 106.37 42.74 110.77 40.32 116.00 41.00
C 110.62 37.23 104.85 43.04 100.00 45.00 Z"/>
</g>
<g fill="None" fill-opacity="0.0" stroke="#000000" stroke-opacity="0.00" stroke-width="0.3"><path d="
M 159.00 40.00 
C 159.00 40.00 158.46 40.13 158.00 40.00
C 158.39 41.87 157.13 44.86 159.00 46.00
C 158.76 44.04 159.32 41.95 159.00 40.00 Z"/>
</g>
<g fill="None" fill-opacity="0.0" stroke="#400000" stroke-opacity="0.12" stroke-width="0.3"><path d="
M 189.00 46.00 
C 188.91 43.26 185.98 41.54 184.00 40.00
C 184.09 42.74 187.02 44.46 189.00 46.00 Z"/>
</g>
<g fill="None" fill-opacity="0.0" stroke="#260000" stroke-opacity="0.07" stroke-width="0.3"><path d="
M 40.00 64.00 
C 48.28 61.00 50.13 50.99 44.25 44.75 C 38.37 38.51 27.69 40.85 28.02 50.98 C 28.36 61.10 46.96 57.04 39.00 48.00
C 44.36 58.43 26.88 57.59 29.03 49.03 C 31.18 40.46 39.63 40.66 44.23 46.77 C 48.83 52.88 44.97 59.83 40.00 64.00 Z"/>
</g>
<g fill="None" fill-opacity="0.0" stroke="#210000" stroke-opacity="0.06" stroke-width="0.3"><path d="
M 207.00 42.00 
C 202.10 45.91 195.45 47.42 190.00 47.00
C 195.93 49.35 203.62 47.86 207.00 42.00 Z"/>
</g>
<g fill="None" fill-opacity="0.0" stroke="#B80202" stroke-opacity="0.31" stroke-width="0.3"><path d="
M 149.00 48.00 
C 149.11 47.98 150.86 46.20 151.00 46.00
C 147.40 47.41 148.80 42.55 146.00 43.00
C 145.68 45.01 146.13 48.54 149.00 48.00 Z"/>
</g>
<g fill="None" fill-opacity="0.0" stroke="#F50101" stroke-opacity="0.38" stroke-width="0.3"><path d="
M 100.00 47.00 
C 100.44 46.55 101.49 45.43 102.00 45.00
C 100.43 45.60 101.00 45.19 100.00 45.00
C 99.57 45.17 98.27 45.25 98.00 45.00
C 98.69 46.35 97.90 47.12 100.00 47.00 Z"/>
</g>
<g fill="None" fill-opacity="0.0" stroke="#250000" stroke-opacity="0.11" stroke-width="0.3"><path d="
M 158.00 47.00 
C 154.05 50.74 148.61 52.23 144.00 48.00
C 146.51 54.26 156.31 52.87 158.00 47.00 Z"/>
</g>
<g fill="None" fill-opacity="0.0" stroke="#1B0000" stroke-opacity="0.08" stroke-width="0.3"><path d="
M 126.00 62.00 
C 125.51 62.07 125.00 62.00 125.00 62.00
C 120.21 67.07 113.96 67.36 109.26 61.74 C 104.55 56.13 112.93 46.42 118.69 52.31 C 124.45 58.19 110.03 63.73 112.00 54.00
C 107.77 61.25 120.49 63.83 120.99 56.01 C 121.50 48.19 112.84 49.20 108.00 51.00
C 101.84 63.74 117.00 72.28 126.00 62.00 Z"/>
</g>
<g fill="None" fill-opacity="0.0" stroke="#E60101" stroke-opacity="0.17" stroke-width="0.3"><path d="
M 168.00 53.00 
C 167.81 54.97 165.39 56.34 164.00 59.00
C 165.57 56.68 170.22 55.44 170.00 52.00
C 169.72 52.06 168.93 51.27 169.00 51.00
C 168.36 52.07 168.16 51.41 168.00 53.00 Z"/>
</g>
<g fill="None" fill-opacity="0.0" stroke="#EB0303" stroke-opacity="0.82" stroke-width="0.3"><path d="
M 170.00 52.00 
C 170.22 55.44 165.57 56.68 164.00 59.00
C 164.06 60.44 162.08 59.74 162.00 61.00
C 168.00 60.28 173.03 60.27 179.00 61.00
C 175.73 58.41 173.21 51.28 170.00 52.00 Z"/>
</g>
<g fill="None" fill-opacity="0.0" stroke="#DE0303" stroke-opacity="0.69" stroke-width="0.3"><path d="
M 64.00 66.00 
C 64.09 65.91 65.10 64.51 65.00 66.00
C 67.05 64.01 67.87 63.58 70.00 63.00
C 70.62 61.29 73.29 61.63 74.00 60.00
C 69.61 58.98 67.56 53.38 64.00 52.00
C 66.04 55.36 60.98 63.99 64.00 66.00 Z"/>
</g>
<g fill="None" fill-opacity="0.0" stroke="#D10100" stroke-opacity="0.25" stroke-width="0.3"><path d="
M 18.00 55.00 
C 18.31 55.82 19.98 59.57 21.00 60.00
C 20.90 59.85 21.99 59.18 22.00 59.00
C 22.06 57.72 20.47 54.27 19.00 54.00
C 19.06 54.29 17.99 54.97 18.00 55.00 Z"/>
</g>
<g fill="None" fill-opacity="0.0" stroke="#EE0303" stroke-opacity="0.71" stroke-width="0.3"><path d="
M 95.00 56.00 
C 92.10 58.13 88.71 59.88 86.00 62.00
C 89.29 62.55 91.94 64.73 95.00 66.00
C 95.00 62.67 95.00 59.33 95.00 56.00 Z"/>
</g>
<g fill="None" fill-opacity="0.0" stroke="#CE0000" stroke-opacity="0.29" stroke-width="0.3"><path d="
M 125.00 62.00 
C 125.00 62.00 125.51 62.07 126.00 62.00
C 126.70 61.20 128.68 60.70 128.00 59.00
C 127.90 58.74 127.05 58.35 127.00 58.00
C 125.31 57.66 124.70 61.03 125.00 62.00 Z"/>
</g>
<g fill="None" fill-opacity="0.0" stroke="#190000" stroke-opacity="0.06" stroke-width="0.3"><path d="
M 21.00 60.00 
C 25.42 64.44 33.56 68.84 39.00 64.00
C 32.13 69.14 27.26 60.11 22.00 59.00
C 21.99 59.18 20.90 59.85 21.00 60.00 Z"/>
</g>
<g fill="None" fill-opacity="0.0" stroke="#190000" stroke-opacity="0.04" stroke-width="0.3"><path d="
M 233.00 69.00 
C 223.27 79.86 246.81 79.56 240.75 68.25 C 234.69 56.93 220.88 69.45 226.00 77.00
C 224.18 70.30 232.79 59.87 238.74 68.26 C 244.70 76.65 227.85 80.04 233.00 69.00 Z"/>
</g>
<g fill="None" fill-opacity="0.0" stroke="#EE0000" stroke-opacity="0.06" stroke-width="0.3"><path d="
M 64.00 66.00 
C 62.97 67.00 61.89 68.77 61.00 70.00
C 62.00 68.86 63.84 67.12 65.00 66.00
C 65.10 64.51 64.09 65.91 64.00 66.00 Z"/>
</g>
<g fill="None" fill-opacity="0.0" stroke="#250000" stroke-opacity="0.04" stroke-width="0.3"><path d="
M 143.00 69.00 
C 142.49 69.55 142.36 70.40 142.00 71.00
C 143.95 70.11 146.07 69.17 147.00 67.00
C 145.36 66.86 144.23 68.13 143.00 69.00 Z"/>
</g>
<g fill="None" fill-opacity="0.0" stroke="#EE0303" stroke-opacity="0.28" stroke-width="0.3"><path d="
M 250.00 73.00 
C 250.26 72.72 251.84 72.47 252.00 72.00
C 252.18 70.35 251.84 68.49 250.00 68.00
C 250.62 69.16 249.18 72.01 250.00 73.00 Z"/>
</g>
<g fill="None" fill-opacity="0.0" stroke="#F20000" stroke-opacity="0.14" stroke-width="0.3"><path d="
M 141.00 71.00 
C 140.05 72.23 139.04 73.95 138.00 75.00
C 139.50 73.75 140.92 72.78 142.00 71.00
C 142.36 70.40 142.49 69.55 143.00 69.00
C 142.03 69.69 141.75 70.03 141.00 71.00 Z"/>
</g>
<g fill="None" fill-opacity="0.0" stroke="#1B0000" stroke-opacity="0.07" stroke-width="0.3"><path d="
M 133.00 81.00 
C 130.50 79.50 133.06 77.69 135.00 78.00
C 135.52 76.47 136.85 75.95 138.00 75.00
C 139.04 73.95 140.05 72.23 141.00 71.00
C 133.45 78.00 123.96 81.79 114.00 82.00
C 117.84 82.57 122.91 80.81 126.00 83.00
C 112.00 88.21 117.84 106.57 108.00 114.00
C 110.70 114.00 112.17 110.75 115.00 111.00
C 112.63 97.39 120.88 84.80 133.00 81.00 Z"/>
</g>
<g fill="None" fill-opacity="0.0" stroke="#270000" stroke-opacity="0.08" stroke-width="0.3"><path d="
M 90.00 86.00 
C 94.06 74.08 76.38 69.54 72.00 80.00
C 78.37 72.42 90.85 75.05 90.00 86.00 Z"/>
</g>
<g fill="None" fill-opacity="0.0" stroke="#2E0000" stroke-opacity="0.07" stroke-width="0.3"><path d="
M 249.00 76.00 
C 243.73 84.59 232.06 85.80 226.00 78.00
C 229.81 88.31 246.77 86.10 249.00 76.00 Z"/>
</g>
<g fill="None" fill-opacity="0.0" stroke="#250000" stroke-opacity="0.06" stroke-width="0.3"><path d="
M 113.00 80.00 
C 109.92 80.26 107.67 78.06 105.00 77.00
C 105.31 79.81 110.94 82.26 113.00 80.00 Z"/>
</g>
<g fill="None" fill-opacity="0.0" stroke="#F70101" stroke-opacity="0.36" stroke-width="0.3"><path d="
M 133.00 81.00 
C 133.35 80.89 133.79 80.31 134.00 80.00
C 134.21 79.69 134.88 79.26 135.00 79.00
C 135.00 79.00 134.85 78.45 135.00 78.00
C 133.06 77.69 130.50 79.50 133.00 81.00 Z"/>
</g>
<g fill="None" fill-opacity="0.0" stroke="#050000" stroke-opacity="0.02" stroke-width="0.3"><path d="
M 135.00 79.00 
C 134.88 79.26 134.21 79.69 134.00 80.00
C 140.93 78.19 146.36 80.40 153.00 81.00
C 153.32 81.03 153.74 80.10 154.00 80.00
C 148.72 78.17 140.37 76.55 135.00 79.00 Z"/>
</g>
<g fill="None" fill-opacity="0.0" stroke="#BE0201" stroke-opacity="0.20" stroke-width="0.3"><path d="
M 153.00 81.00 
C 153.88 81.36 155.98 82.49 157.00 83.00
C 156.75 82.70 157.00 82.00 157.00 82.00
C 156.77 80.28 155.15 80.40 154.00 80.00
C 153.74 80.10 153.32 81.03 153.00 81.00 Z"/>
</g>
<g fill="None" fill-opacity="0.0" stroke="#120000" stroke-opacity="0.04" stroke-width="0.3"><path d="
M 55.00 81.00 
C 51.90 85.14 53.39 91.08 54.00 96.00
C 51.22 92.28 46.31 85.03 41.00 88.00
C 54.20 89.93 58.50 108.10 51.00 118.00
C 61.48 107.94 52.10 94.04 55.00 81.00 Z"/>
</g>
<g fill="None" fill-opacity="0.0" stroke="#1E0000" stroke-opacity="0.05" stroke-width="0.3"><path d="
M 72.00 81.00 
C 64.45 90.96 81.99 104.71 91.00 97.00
C 81.16 101.45 67.99 91.61 72.00 81.00 Z"/>
</g>
<g fill="None" fill-opacity="0.0" stroke="#0E0000" stroke-opacity="0.02" stroke-width="0.3"><path d="
M 79.00 81.00 
C 74.67 84.36 78.90 87.38 79.00 81.00 Z"/>
</g>
<g fill="None" fill-opacity="0.0" stroke="#220000" stroke-opacity="0.10" stroke-width="0.3"><path d="
M 157.00 83.00 
C 157.98 84.19 159.78 85.08 161.00 86.00
C 161.03 86.07 161.70 84.85 161.00 84.00
C 160.04 83.38 158.12 82.17 157.00 82.00
C 157.00 82.00 156.75 82.70 157.00 83.00 Z"/>
</g>
<g fill="None" fill-opacity="0.0" stroke="#E30101" stroke-opacity="0.17" stroke-width="0.3"><path d="
M 161.00 86.00 
C 162.22 86.91 163.46 88.18 165.00 89.00
C 164.97 88.30 163.40 86.54 163.00 86.00
C 162.30 85.06 162.05 84.68 161.00 84.00
C 161.70 84.85 161.03 86.07 161.00 86.00 Z"/>
</g>
<g fill="None" fill-opacity="0.0" stroke="#FE0000" stroke-opacity="0.20" stroke-width="0.3"><path d="
M 34.00 85.00 
C 31.39 85.14 28.61 85.14 26.00 85.00
C 28.80 85.46 31.14 85.46 34.00 85.00 Z"/>
</g>
<g fill="None" fill-opacity="0.0" stroke="#1D0000" stroke-opacity="0.07" stroke-width="0.3"><path d="
M 165.00 89.00 
C 165.05 90.10 160.05 94.79 159.00 96.00
C 159.46 95.87 160.00 96.00 160.00 96.00
C 163.07 93.87 164.75 90.13 169.00 90.00
C 167.24 88.68 164.80 87.85 163.00 86.00
C 163.40 86.54 164.97 88.30 165.00 89.00 Z"/>
</g>
<g fill="None" fill-opacity="0.0" stroke="#210000" stroke-opacity="0.08" stroke-width="0.3"><path d="
M 89.00 87.00 
C 86.00 90.07 81.23 89.31 78.00 87.00
C 78.51 91.14 88.81 91.81 89.00 87.00 Z"/>
</g>
<g fill="None" fill-opacity="0.0" stroke="#1F0000" stroke-opacity="0.05" stroke-width="0.3"><path d="
M 170.00 115.00 
C 177.13 125.59 193.70 117.68 193.65 105.69 C 193.60 93.71 181.23 84.80 170.00 89.00
C 181.09 87.26 192.42 94.32 191.99 105.99 C 191.56 117.66 178.65 122.43 170.00 115.00 Z"/>
</g>
<g fill="None" fill-opacity="0.0" stroke="#1C0000" stroke-opacity="0.07" stroke-width="0.3"><path d="
M 25.00 93.00 
C 16.14 99.32 25.25 116.70 35.00 113.00
C 25.08 113.08 19.67 100.87 25.00 93.00 Z"/>
</g>
<g fill="None" fill-opacity="0.0" stroke="#070000" stroke-opacity="0.03" stroke-width="0.3"><path d="
M 209.00 120.00 
C 208.60 120.24 210.41 120.48 211.00 120.00
C 215.11 112.42 216.39 102.14 214.00 94.00
C 214.26 103.13 214.50 112.85 209.00 120.00 Z"/>
</g>
<g fill="None" fill-opacity="0.0" stroke="#260000" stroke-opacity="0.06" stroke-width="0.3"><path d="
M 40.00 97.00 
C 33.52 93.20 26.92 98.44 30.08 104.92 C 33.25 111.39 42.00 104.67 37.00 101.00
C 39.92 106.26 30.27 108.09 30.03 102.03 C 29.78 95.96 37.12 97.57 40.00 97.00 Z"/>
</g>
<g fill="None" fill-opacity="0.0" stroke="#1E0000" stroke-opacity="0.07" stroke-width="0.3"><path d="
M 147.00 99.00 
C 147.29 99.13 150.89 100.77 150.00 100.00
C 144.17 94.52 133.09 93.91 129.00 102.00
C 134.44 97.30 140.23 95.91 147.00 99.00 Z"/>
</g>
<g fill="None" fill-opacity="0.0" stroke="#A40000" stroke-opacity="0.13" stroke-width="0.3"><path d="
M 156.00 100.00 
C 156.04 99.87 157.00 100.00 157.00 100.00
C 158.04 99.14 159.40 97.41 160.00 96.00
C 160.00 96.00 159.46 95.87 159.00 96.00
C 157.42 96.45 155.92 98.36 156.00 100.00 Z"/>
</g>
<g fill="None" fill-opacity="0.0" stroke="#270000" stroke-opacity="0.08" stroke-width="0.3"><path d="
M 36.00 113.00 
C 43.54 112.96 46.61 102.27 41.00 98.00
C 44.41 104.16 41.83 110.02 36.00 113.00 Z"/>
</g>
<g fill="None" fill-opacity="0.0" stroke="#F00000" stroke-opacity="0.19" stroke-width="0.3"><path d="
M 150.00 100.00 
C 150.89 100.77 147.29 99.13 147.00 99.00
C 147.42 99.24 153.66 103.13 150.00 100.00 Z"/>
</g>
<g fill="None" fill-opacity="0.0" stroke="#150000" stroke-opacity="0.07" stroke-width="0.3"><path d="
M 179.00 99.00 
C 171.38 97.24 165.03 106.90 169.00 113.00
C 167.11 105.81 172.91 100.14 179.00 99.00 Z"/>
</g>
<g fill="None" fill-opacity="0.0" stroke="#0F0000" stroke-opacity="0.06" stroke-width="0.3"><path d="
M 157.00 100.00 
C 157.00 100.00 156.04 99.87 156.00 100.00
C 154.92 104.69 153.90 108.68 151.00 103.00
C 152.25 113.42 153.67 123.55 163.00 130.00
C 151.86 122.31 157.53 110.02 157.00 100.00 Z"/>
</g>
<g fill="None" fill-opacity="0.0" stroke="#120000" stroke-opacity="0.02" stroke-width="0.3"><path d="
M 184.00 110.00 
C 185.09 106.37 184.87 100.59 180.00 100.00
C 183.54 102.44 182.34 107.03 184.00 110.00 Z"/>
</g>
<g fill="None" fill-opacity="0.0" stroke="#110000" stroke-opacity="0.04" stroke-width="0.3"><path d="
M 129.00 103.00 
C 126.70 106.35 127.77 113.03 132.00 115.00
C 130.37 111.23 127.91 107.66 129.00 103.00 Z"/>
</g>
<g fill="None" fill-opacity="0.0" stroke="#1C0000" stroke-opacity="0.05" stroke-width="0.3"><path d="
M 133.00 115.00 
C 138.78 119.60 146.20 114.42 143.97 107.03 C 141.75 99.63 128.54 103.85 135.00 111.00
C 131.49 105.48 140.65 100.52 143.00 107.00 C 145.35 113.48 138.00 117.42 133.00 115.00 Z"/>
</g>
<g fill="None" fill-opacity="0.0" stroke="#050000" stroke-opacity="0.04" stroke-width="0.3"><path d="
M 64.00 111.00 
C 62.47 109.31 61.52 106.38 60.00 105.00
C 55.63 103.01 62.51 109.73 64.00 111.00 Z"/>
</g>
<g fill="None" fill-opacity="0.0" stroke="#DB0000" stroke-opacity="0.34" stroke-width="0.3"><path d="
M 64.00 111.00 
C 66.12 112.81 67.03 113.75 69.00 115.00
C 69.03 115.01 69.76 113.91 70.00 114.00
C 66.97 111.63 63.77 106.71 60.00 105.00
C 61.52 106.38 62.47 109.31 64.00 111.00 Z"/>
</g>
<g fill="None" fill-opacity="0.0" stroke="#3C0000" stroke-opacity="0.07" stroke-width="0.3"><path d="
M 127.00 126.00 
C 122.42 121.66 117.77 117.54 115.00 112.00
C 115.71 118.44 121.08 123.80 127.00 126.00 Z"/>
</g>
<g fill="None" fill-opacity="0.0" stroke="#150000" stroke-opacity="0.05" stroke-width="0.3"><path d="
M 69.00 115.00 
C 79.18 121.91 98.39 122.79 107.00 114.00
C 96.43 120.08 80.02 121.83 70.00 114.00
C 69.76 113.91 69.03 115.01 69.00 115.00 Z"/>
</g>
<g fill="None" fill-opacity="0.0" stroke="#650000" stroke-opacity="0.11" stroke-width="0.3"><path d="
M 46.00 123.00 
C 45.77 123.34 46.00 124.00 46.00 124.00
C 47.67 122.41 51.19 121.88 51.00 119.00
C 49.16 120.23 47.25 121.17 46.00 123.00 Z"/>
</g>
<g fill="None" fill-opacity="0.0" stroke="#250000" stroke-opacity="0.09" stroke-width="0.3"><path d="
M 151.00 119.00 
C 144.59 124.78 136.09 128.20 128.00 127.00
C 136.58 129.94 146.14 126.92 151.00 119.00 Z"/>
</g>
<g fill="None" fill-opacity="0.0" stroke="#FE0000" stroke-opacity="0.29" stroke-width="0.3"><path d="
M 208.00 122.00 
C 207.90 122.77 208.02 123.52 207.00 125.00
C 208.64 123.25 209.84 122.30 211.00 120.00
C 210.41 120.48 208.60 120.24 209.00 120.00
C 208.25 120.98 208.52 120.82 208.00 122.00 Z"/>
</g>
<g fill="None" fill-opacity="0.0" stroke="#000000" stroke-opacity="0.00" stroke-width="0.3"><path d="
M 206.00 125.00 
C 204.72 126.69 203.25 128.37 202.00 130.00
C 203.57 128.42 205.42 126.69 207.00 125.00
C 208.02 123.52 207.90 122.77 208.00 122.00
C 207.54 123.05 206.71 124.07 206.00 125.00 Z"/>
</g>
<g fill="None" fill-opacity="0.0" stroke="#CD0000" stroke-opacity="0.18" stroke-width="0.3"><path d="
M 18.00 125.00 
C 18.77 126.00 19.75 126.48 21.00 127.00
C 21.24 126.92 21.68 125.97 22.00 126.00
C 20.61 125.39 18.59 123.86 17.00 123.00
C 17.29 123.23 17.70 124.62 18.00 125.00 Z"/>
</g>
<g fill="None" fill-opacity="0.0" stroke="#150000" stroke-opacity="0.04" stroke-width="0.3"><path d="
M 22.00 126.00 
C 21.68 125.97 21.24 126.92 21.00 127.00
C 28.03 129.91 40.50 130.15 46.00 124.00
C 46.00 124.00 45.77 123.34 46.00 123.00
C 41.69 124.35 38.89 126.50 34.22 127.22 C 29.55 127.94 26.55 126.43 22.00 126.00 Z"/>
</g>
<g fill="None" fill-opacity="0.0" stroke="#F30000" stroke-opacity="0.08" stroke-width="0.3"><path d="
M 201.00 130.00 
C 200.68 130.53 200.35 131.58 200.00 132.00
C 200.92 131.30 201.26 130.96 202.00 130.00
C 203.25 128.37 204.72 126.69 206.00 125.00
C 204.44 126.70 202.31 127.85 201.00 130.00 Z"/>
</g>
<g fill="None" fill-opacity="0.0" stroke="#360000" stroke-opacity="0.09" stroke-width="0.3"><path d="
M 172.00 135.00 
C 169.93 132.75 166.35 132.25 164.00 130.00
C 164.28 133.56 169.06 134.70 172.00 135.00 Z"/>
</g>
<g fill="None" fill-opacity="0.0" stroke="#260000" stroke-opacity="0.09" stroke-width="0.3"><path d="
M 200.00 132.00 
C 200.35 131.58 200.68 130.53 201.00 130.00
C 198.60 132.09 195.18 132.89 193.00 135.00
C 195.77 135.32 198.11 133.45 200.00 132.00 Z"/>
</g>
<g fill="None" fill-opacity="0.0" stroke="#020000" stroke-opacity="0.02" stroke-width="0.3"><path d="
M 186.00 136.00 
C 183.73 136.13 181.27 136.15 179.00 136.00
C 177.07 136.06 174.37 133.62 173.00 136.00
C 178.88 136.69 187.02 138.92 192.00 135.00
C 189.76 134.97 188.19 135.87 186.00 136.00 Z"/>
</g>
<g fill="None" fill-opacity="0.0" stroke="#FE0000" stroke-opacity="0.73" stroke-width="0.3"><path d="
M 179.00 136.00 
C 181.27 136.15 183.73 136.13 186.00 136.00
C 184.36 135.93 180.69 135.94 179.00 136.00 Z"/>
</g>
<g fill="#000000" fill-opacity="0.00" stroke="None">
<path d="
M 0.00 256.00 
L 256.00 256.00
L 256.00 0.00
L 0.00 0.00
L 0.00 256.00
M 127.00 58.00 
C 127.05 58.35 127.90 58.74 128.00 59.00
C 129.70 52.85 127.33 45.74 134.00 41.00
C 132.87 49.71 137.64 58.32 146.08 61.92 C 154.51 65.53 162.45 61.85 173.00 62.00 C 183.55 62.15 191.12 65.40 199.08 70.92 C 207.05 76.44 211.10 84.28 213.00 93.00
C 215.00 86.18 218.20 95.68 223.70 98.30 C 229.19 100.93 238.09 103.39 245.00 102.00
C 231.02 102.42 215.15 95.16 212.07 79.93 C 209.00 64.70 225.41 48.84 240.00 56.00
C 232.52 47.55 220.39 57.54 213.00 62.00
C 213.21 67.90 209.33 74.84 211.00 82.00
C 207.26 76.24 201.66 70.73 196.00 67.00
C 201.43 66.68 208.25 67.05 212.00 63.00
C 189.11 75.24 157.65 49.06 173.00 25.00
C 165.82 30.54 169.08 43.70 169.00 51.00
C 168.93 51.27 169.72 52.06 170.00 52.00
C 173.21 51.28 175.73 58.41 179.00 61.00
C 173.03 60.27 168.00 60.28 162.00 61.00
C 162.08 59.74 164.06 60.44 164.00 59.00
C 165.39 56.34 167.81 54.97 168.00 53.00
C 163.47 62.96 149.74 64.02 141.77 58.23 C 133.80 52.44 133.00 35.37 145.00 34.00
C 141.64 29.84 149.15 26.77 153.70 23.70 C 158.24 20.63 164.79 18.68 170.22 16.22 C 175.66 13.77 183.67 16.02 188.07 15.07 C 192.48 14.13 205.53 20.71 201.00 16.00
C 209.77 17.17 219.88 23.19 226.70 28.30 C 233.52 33.42 232.44 34.14 236.75 38.25 C 241.06 42.35 241.89 46.39 244.30 49.70 C 246.71 53.00 250.15 60.86 249.98 63.02 C 249.80 65.19 247.23 74.55 250.00 73.00
C 249.18 72.01 250.62 69.16 250.00 68.00
C 251.84 68.49 252.18 70.35 252.00 72.00
C 253.36 80.29 254.40 97.84 246.00 100.00
C 253.58 103.36 245.37 114.73 242.70 121.69 C 240.02 128.66 234.23 135.50 229.75 141.75 C 225.27 148.00 219.54 154.40 214.25 160.25 C 208.95 166.10 203.05 170.82 197.75 176.75 C 192.46 182.69 186.31 187.13 180.75 192.75 C 175.19 198.38 168.86 203.65 163.25 209.25 C 157.64 214.84 151.76 219.48 146.25 225.25 C 140.74 231.01 133.68 235.37 129.00 242.00
C 90.05 204.98 42.57 170.30 15.00 124.00
C 16.28 123.47 16.86 124.97 18.00 125.00
C 17.70 124.62 17.29 123.23 17.00 123.00
C 8.36 118.34 7.28 107.44 5.02 97.98 C 2.77 88.51 4.21 75.76 4.98 66.98 C 5.74 58.19 12.08 48.91 17.00 42.00
C 17.45 46.30 15.96 51.12 18.00 55.00
C 17.99 54.97 19.06 54.29 19.00 54.00
C 13.72 29.08 46.21 20.37 58.92 40.08 C 71.63 59.79 55.55 83.83 34.00 85.00
C 31.14 85.46 28.80 85.46 26.00 85.00
C 18.84 84.61 12.85 82.03 7.00 78.00
C 11.49 84.92 21.92 86.27 30.00 87.00
C 28.78 89.01 24.94 89.24 25.00 92.00
C 30.12 89.21 35.97 85.95 41.10 85.10 C 46.23 84.24 52.59 77.67 56.00 80.00
C 55.74 75.95 59.31 73.30 61.00 70.00
C 61.89 68.77 62.97 67.00 64.00 66.00
C 60.98 63.99 66.04 55.36 64.00 52.00
C 67.56 53.38 69.61 58.98 74.00 60.00
C 73.29 61.63 70.62 61.29 70.00 63.00
C 79.76 60.32 90.85 61.97 97.25 70.75 C 103.64 79.54 98.43 90.76 92.00 97.00
C 101.66 93.32 99.74 81.77 103.00 75.00
C 94.20 68.96 93.70 54.94 100.00 47.00
C 97.90 47.12 98.69 46.35 98.00 45.00
C 93.96 37.14 88.48 29.79 79.26 35.26 C 70.03 40.72 76.66 57.12 87.07 51.07 C 97.49 45.02 77.07 31.31 81.00 47.00
C 81.10 33.55 94.44 46.94 85.30 50.30 C 76.16 53.66 73.73 41.13 79.75 36.75 C 85.78 32.37 92.72 35.41 95.77 42.23 C 98.82 49.05 94.49 56.47 87.77 59.77 C 81.05 63.07 73.78 59.22 68.75 54.25 C 63.72 49.28 62.13 39.23 65.77 32.77 C 69.41 26.32 73.55 21.02 81.00 20.00
C 70.71 18.08 62.27 32.44 62.00 42.00
C 56.33 30.03 41.35 26.18 30.00 28.00
C 45.43 15.19 66.55 11.37 86.00 16.00
C 77.79 20.61 91.68 18.15 96.23 20.77 C 100.78 23.39 106.76 25.78 110.25 29.75 C 113.73 33.72 120.13 36.17 121.77 41.23 C 123.41 46.29 128.98 50.41 127.00 58.00
M 95.00 56.00 
C 95.00 59.33 95.00 62.67 95.00 66.00
C 91.94 64.73 89.29 62.55 86.00 62.00
C 88.71 59.88 92.10 58.13 95.00 56.00 Z"/>
</g>
<g fill="#EB0303" fill-opacity="0.95" stroke="None">
<path d="
M 98.00 45.00 
C 98.27 45.25 99.57 45.17 100.00 45.00
C 104.85 43.04 110.62 37.23 116.00 41.00
C 110.77 40.32 106.37 42.74 102.00 45.00
C 101.49 45.43 100.44 46.55 100.00 47.00
C 93.70 54.94 94.20 68.96 103.00 75.00
C 99.74 81.77 101.66 93.32 92.00 97.00
C 98.43 90.76 103.64 79.54 97.25 70.75 C 90.85 61.97 79.76 60.32 70.00 63.00
C 67.87 63.58 67.05 64.01 65.00 66.00
C 63.84 67.12 62.00 68.86 61.00 70.00
C 59.31 73.30 55.74 75.95 56.00 80.00
C 52.59 77.67 46.23 84.24 41.10 85.10 C 35.97 85.95 30.12 89.21 25.00 92.00
C 24.94 89.24 28.78 89.01 30.00 87.00
C 21.92 86.27 11.49 84.92 7.00 78.00
C 12.85 82.03 18.84 84.61 26.00 85.00
C 28.61 85.14 31.39 85.14 34.00 85.00
C 55.55 83.83 71.63 59.79 58.92 40.08 C 46.21 20.37 13.72 29.08 19.00 54.00
C 20.47 54.27 22.06 57.72 22.00 59.00
C 27.26 60.11 32.13 69.14 39.00 64.00
C 33.56 68.84 25.42 64.44 21.00 60.00
C 19.98 59.57 18.31 55.82 18.00 55.00
C 15.96 51.12 17.45 46.30 17.00 42.00
C 12.08 48.91 5.74 58.19 4.98 66.98 C 4.21 75.76 2.77 88.51 5.02 97.98 C 7.28 107.44 8.36 118.34 17.00 123.00
C 18.59 123.86 20.61 125.39 22.00 126.00
C 26.55 126.43 29.55 127.94 34.22 127.22 C 38.89 126.50 41.69 124.35 46.00 123.00
C 47.25 121.17 49.16 120.23 51.00 119.00
C 51.19 121.88 47.67 122.41 46.00 124.00
C 40.50 130.15 28.03 129.91 21.00 127.00
C 19.75 126.48 18.77 126.00 18.00 125.00
C 16.86 124.97 16.28 123.47 15.00 124.00
C 42.57 170.30 90.05 204.98 129.00 242.00
C 133.68 235.37 140.74 231.01 146.25 225.25 C 151.76 219.48 157.64 214.84 163.25 209.25 C 168.86 203.65 175.19 198.38 180.75 192.75 C 186.31 187.13 192.46 182.69 197.75 176.75 C 203.05 170.82 208.95 166.10 214.25 160.25 C 219.54 154.40 225.27 148.00 229.75 141.75 C 234.23 135.50 240.02 128.66 242.70 121.69 C 245.37 114.73 253.58 103.36 246.00 100.00
C 254.40 97.84 253.36 80.29 252.00 72.00
C 251.84 72.47 250.26 72.72 250.00 73.00
C 247.23 74.55 249.80 65.19 249.98 63.02 C 250.15 60.86 246.71 53.00 244.30 49.70 C 241.89 46.39 241.06 42.35 236.75 38.25 C 232.44 34.14 233.52 33.42 226.70 28.30 C 219.88 23.19 209.77 17.17 201.00 16.00
C 205.53 20.71 192.48 14.13 188.07 15.07 C 183.67 16.02 175.66 13.77 170.22 16.22 C 164.79 18.68 158.24 20.63 153.70 23.70 C 149.15 26.77 141.64 29.84 145.00 34.00
C 133.00 35.37 133.80 52.44 141.77 58.23 C 149.74 64.02 163.47 62.96 168.00 53.00
C 168.16 51.41 168.36 52.07 169.00 51.00
C 169.08 43.70 165.82 30.54 173.00 25.00
C 157.65 49.06 189.11 75.24 212.00 63.00
C 208.25 67.05 201.43 66.68 196.00 67.00
C 201.66 70.73 207.26 76.24 211.00 82.00
C 209.33 74.84 213.21 67.90 213.00 62.00
C 220.39 57.54 232.52 47.55 240.00 56.00
C 225.41 48.84 209.00 64.70 212.07 79.93 C 215.15 95.16 231.02 102.42 245.00 102.00
C 238.09 103.39 229.19 100.93 223.70 98.30 C 218.20 95.68 215.00 86.18 213.00 93.00
C 211.10 84.28 207.05 76.44 199.08 70.92 C 191.12 65.40 183.55 62.15 173.00 62.00 C 162.45 61.85 154.51 65.53 146.08 61.92 C 137.64 58.32 132.87 49.71 134.00 41.00
C 127.33 45.74 129.70 52.85 128.00 59.00
C 128.68 60.70 126.70 61.20 126.00 62.00
C 117.00 72.28 101.84 63.74 108.00 51.00
C 112.84 49.20 121.50 48.19 120.99 56.01 C 120.49 63.83 107.77 61.25 112.00 54.00
C 110.03 63.73 124.45 58.19 118.69 52.31 C 112.93 46.42 104.55 56.13 109.26 61.74 C 113.96 67.36 120.21 67.07 125.00 62.00
C 124.70 61.03 125.31 57.66 127.00 58.00
C 128.98 50.41 123.41 46.29 121.77 41.23 C 120.13 36.17 113.73 33.72 110.25 29.75 C 106.76 25.78 100.78 23.39 96.23 20.77 C 91.68 18.15 77.79 20.61 86.00 16.00
C 66.55 11.37 45.43 15.19 30.00 28.00
C 41.35 26.18 56.33 30.03 62.00 42.00
C 62.27 32.44 70.71 18.08 81.00 20.00
C 73.55 21.02 69.41 26.32 65.77 32.77 C 62.13 39.23 63.72 49.28 68.75 54.25 C 73.78 59.22 81.05 63.07 87.77 59.77 C 94.49 56.47 98.82 49.05 95.77 42.23 C 92.72 35.41 85.78 32.37 79.75 36.75 C 73.73 41.13 76.16 53.66 85.30 50.30 C 94.44 46.94 81.10 33.55 81.00 47.00
C 77.07 31.31 97.49 45.02 87.07 51.07 C 76.66 57.12 70.03 40.72 79.26 35.26 C 88.48 29.79 93.96 37.14 98.00 45.00
M 183.00 16.00 
C 179.70 18.38 176.24 21.27 173.00 24.00
C 174.16 19.90 178.84 16.36 183.00 16.00
M 210.00 37.00 
C 208.46 31.53 209.37 24.28 204.00 20.00
C 210.99 21.94 210.12 31.03 210.00 37.00
M 200.00 31.00 
C 193.94 23.70 182.60 29.56 184.00 39.00
C 178.81 30.15 195.49 20.03 200.00 31.00
M 157.00 37.00 
C 157.96 37.63 159.57 38.46 159.00 40.00
C 159.32 41.95 158.76 44.04 159.00 46.00
C 157.13 44.86 158.39 41.87 158.00 40.00
C 155.64 39.33 156.15 37.05 155.00 36.00
C 152.22 34.40 149.23 33.19 146.00 33.00
C 149.17 30.87 155.07 33.58 157.00 37.00
M 191.00 32.00 
C 189.72 34.47 190.87 36.32 191.00 39.00
C 188.91 37.63 187.78 32.99 191.00 32.00
M 201.00 32.00 
C 202.07 37.71 197.24 42.21 192.00 40.00
C 197.07 39.79 199.66 36.66 201.00 32.00
M 149.00 48.00 
C 146.13 48.54 145.68 45.01 146.00 43.00
C 148.80 42.55 147.40 47.41 151.00 46.00
C 156.59 38.22 140.83 38.68 144.00 47.00
C 138.10 32.74 164.10 42.44 149.00 48.00
M 189.00 46.00 
C 187.02 44.46 184.09 42.74 184.00 40.00
C 185.98 41.54 188.91 43.26 189.00 46.00
M 40.00 64.00 
C 44.97 59.83 48.83 52.88 44.23 46.77 C 39.63 40.66 31.18 40.46 29.03 49.03 C 26.88 57.59 44.36 58.43 39.00 48.00
C 46.96 57.04 28.36 61.10 28.02 50.98 C 27.69 40.85 38.37 38.51 44.25 44.75 C 50.13 50.99 48.28 61.00 40.00 64.00
M 207.00 42.00 
C 203.62 47.86 195.93 49.35 190.00 47.00
C 195.45 47.42 202.10 45.91 207.00 42.00
M 158.00 47.00 
C 156.31 52.87 146.51 54.26 144.00 48.00
C 148.61 52.23 154.05 50.74 158.00 47.00
M 233.00 69.00 
C 227.85 80.04 244.70 76.65 238.74 68.26 C 232.79 59.87 224.18 70.30 226.00 77.00
C 220.88 69.45 234.69 56.93 240.75 68.25 C 246.81 79.56 223.27 79.86 233.00 69.00
M 142.00 71.00 
C 140.92 72.78 139.50 73.75 138.00 75.00
C 136.85 75.95 135.52 76.47 135.00 78.00
C 134.85 78.45 135.00 79.00 135.00 79.00
C 140.37 76.55 148.72 78.17 154.00 80.00
C 155.15 80.40 156.77 80.28 157.00 82.00
C 158.12 82.17 160.04 83.38 161.00 84.00
C 162.05 84.68 162.30 85.06 163.00 86.00
C 164.80 87.85 167.24 88.68 169.00 90.00
C 164.75 90.13 163.07 93.87 160.00 96.00
C 159.40 97.41 158.04 99.14 157.00 100.00
C 157.53 110.02 151.86 122.31 163.00 130.00
C 153.67 123.55 152.25 113.42 151.00 103.00
C 153.90 108.68 154.92 104.69 156.00 100.00
C 155.92 98.36 157.42 96.45 159.00 96.00
C 160.05 94.79 165.05 90.10 165.00 89.00
C 163.46 88.18 162.22 86.91 161.00 86.00
C 159.78 85.08 157.98 84.19 157.00 83.00
C 155.98 82.49 153.88 81.36 153.00 81.00
C 146.36 80.40 140.93 78.19 134.00 80.00
C 133.79 80.31 133.35 80.89 133.00 81.00
C 120.88 84.80 112.63 97.39 115.00 111.00
C 112.17 110.75 110.70 114.00 108.00 114.00
C 117.84 106.57 112.00 88.21 126.00 83.00
C 122.91 80.81 117.84 82.57 114.00 82.00
C 123.96 81.79 133.45 78.00 141.00 71.00
C 141.75 70.03 142.03 69.69 143.00 69.00
C 144.23 68.13 145.36 66.86 147.00 67.00
C 146.07 69.17 143.95 70.11 142.00 71.00
M 90.00 86.00 
C 90.85 75.05 78.37 72.42 72.00 80.00
C 76.38 69.54 94.06 74.08 90.00 86.00
M 249.00 76.00 
C 246.77 86.10 229.81 88.31 226.00 78.00
C 232.06 85.80 243.73 84.59 249.00 76.00
M 113.00 80.00 
C 110.94 82.26 105.31 79.81 105.00 77.00
C 107.67 78.06 109.92 80.26 113.00 80.00
M 55.00 81.00 
C 52.10 94.04 61.48 107.94 51.00 118.00
C 58.50 108.10 54.20 89.93 41.00 88.00
C 46.31 85.03 51.22 92.28 54.00 96.00
C 53.39 91.08 51.90 85.14 55.00 81.00
M 72.00 81.00 
C 67.99 91.61 81.16 101.45 91.00 97.00
C 81.99 104.71 64.45 90.96 72.00 81.00
M 79.00 81.00 
C 78.90 87.38 74.67 84.36 79.00 81.00
M 89.00 87.00 
C 88.81 91.81 78.51 91.14 78.00 87.00
C 81.23 89.31 86.00 90.07 89.00 87.00
M 170.00 115.00 
C 178.65 122.43 191.56 117.66 191.99 105.99 C 192.42 94.32 181.09 87.26 170.00 89.00
C 181.23 84.80 193.60 93.71 193.65 105.69 C 193.70 117.68 177.13 125.59 170.00 115.00
M 25.00 93.00 
C 19.67 100.87 25.08 113.08 35.00 113.00
C 25.25 116.70 16.14 99.32 25.00 93.00
M 211.00 120.00 
C 209.84 122.30 208.64 123.25 207.00 125.00
C 205.42 126.69 203.57 128.42 202.00 130.00
C 201.26 130.96 200.92 131.30 200.00 132.00
C 198.11 133.45 195.77 135.32 193.00 135.00
C 195.18 132.89 198.60 132.09 201.00 130.00
C 202.31 127.85 204.44 126.70 206.00 125.00
C 206.71 124.07 207.54 123.05 208.00 122.00
C 208.52 120.82 208.25 120.98 209.00 120.00
C 214.50 112.85 214.26 103.13 214.00 94.00
C 216.39 102.14 215.11 112.42 211.00 120.00
M 40.00 97.00 
C 37.12 97.57 29.78 95.96 30.03 102.03 C 30.27 108.09 39.92 106.26 37.00 101.00
C 42.00 104.67 33.25 111.39 30.08 104.92 C 26.92 98.44 33.52 93.20 40.00 97.00
M 150.00 100.00 
C 153.66 103.13 147.42 99.24 147.00 99.00
C 140.23 95.91 134.44 97.30 129.00 102.00
C 133.09 93.91 144.17 94.52 150.00 100.00
M 36.00 113.00 
C 41.83 110.02 44.41 104.16 41.00 98.00
C 46.61 102.27 43.54 112.96 36.00 113.00
M 179.00 99.00 
C 172.91 100.14 167.11 105.81 169.00 113.00
C 165.03 106.90 171.38 97.24 179.00 99.00
M 184.00 110.00 
C 182.34 107.03 183.54 102.44 180.00 100.00
C 184.87 100.59 185.09 106.37 184.00 110.00
M 129.00 103.00 
C 127.91 107.66 130.37 111.23 132.00 115.00
C 127.77 113.03 126.70 106.35 129.00 103.00
M 133.00 115.00 
C 138.00 117.42 145.35 113.48 143.00 107.00 C 140.65 100.52 131.49 105.48 135.00 111.00
C 128.54 103.85 141.75 99.63 143.97 107.03 C 146.20 114.42 138.78 119.60 133.00 115.00
M 60.00 105.00 
C 63.77 106.71 66.97 111.63 70.00 114.00
C 80.02 121.83 96.43 120.08 107.00 114.00
C 98.39 122.79 79.18 121.91 69.00 115.00
C 67.03 113.75 66.12 112.81 64.00 111.00
C 62.51 109.73 55.63 103.01 60.00 105.00
M 127.00 126.00 
C 121.08 123.80 115.71 118.44 115.00 112.00
C 117.77 117.54 122.42 121.66 127.00 126.00
M 151.00 119.00 
C 146.14 126.92 136.58 129.94 128.00 127.00
C 136.09 128.20 144.59 124.78 151.00 119.00
M 172.00 135.00 
C 169.06 134.70 164.28 133.56 164.00 130.00
C 166.35 132.25 169.93 132.75 172.00 135.00
M 179.00 136.00 
C 180.69 135.94 184.36 135.93 186.00 136.00
C 188.19 135.87 189.76 134.97 192.00 135.00
C 187.02 138.92 178.88 136.69 173.00 136.00
C 174.37 133.62 177.07 136.06 179.00 136.00 Z"/>
</g>
<g fill="#500000" fill-opacity="0.11" stroke="None">
<path d="
M 183.00 16.00 
C 178.84 16.36 174.16 19.90 173.00 24.00
C 176.24 21.27 179.70 18.38 183.00 16.00 Z"/>
</g>
<g fill="#170000" fill-opacity="0.03" stroke="None">
<path d="
M 210.00 37.00 
C 210.12 31.03 210.99 21.94 204.00 20.00
C 209.37 24.28 208.46 31.53 210.00 37.00 Z"/>
</g>
<g fill="#280000" fill-opacity="0.12" stroke="None">
<path d="
M 200.00 31.00 
C 195.49 20.03 178.81 30.15 184.00 39.00
C 182.60 29.56 193.94 23.70 200.00 31.00 Z"/>
</g>
<g fill="#170000" fill-opacity="0.04" stroke="None">
<path d="
M 155.00 36.00 
C 155.62 36.36 156.44 36.63 157.00 37.00
C 155.07 33.58 149.17 30.87 146.00 33.00
C 149.23 33.19 152.22 34.40 155.00 36.00 Z"/>
</g>
<g fill="#180000" fill-opacity="0.02" stroke="None">
<path d="
M 191.00 32.00 
C 187.78 32.99 188.91 37.63 191.00 39.00
C 190.87 36.32 189.72 34.47 191.00 32.00 Z"/>
</g>
<g fill="#0E0000" fill-opacity="0.05" stroke="None">
<path d="
M 201.00 32.00 
C 199.66 36.66 197.07 39.79 192.00 40.00
C 197.24 42.21 202.07 37.71 201.00 32.00 Z"/>
</g>
<g fill="#D40000" fill-opacity="0.24" stroke="None">
<path d="
M 158.00 40.00 
C 158.46 40.13 159.00 40.00 159.00 40.00
C 159.57 38.46 157.96 37.63 157.00 37.00
C 156.44 36.63 155.62 36.36 155.00 36.00
C 156.15 37.05 155.64 39.33 158.00 40.00 Z"/>
</g>
<g fill="#0D0000" fill-opacity="0.04" stroke="None">
<path d="
M 151.00 46.00 
C 150.86 46.20 149.11 47.98 149.00 48.00
C 164.10 42.44 138.10 32.74 144.00 47.00
C 140.83 38.68 156.59 38.22 151.00 46.00 Z"/>
</g>
<g fill="#130000" fill-opacity="0.04" stroke="None">
<path d="
M 100.00 45.00 
C 101.00 45.19 100.43 45.60 102.00 45.00
C 106.37 42.74 110.77 40.32 116.00 41.00
C 110.62 37.23 104.85 43.04 100.00 45.00 Z"/>
</g>
<g fill="#000000" fill-opacity="0.00" stroke="None">
<path d="
M 159.00 40.00 
C 159.00 40.00 158.46 40.13 158.00 40.00
C 158.39 41.87 157.13 44.86 159.00 46.00
C 158.76 44.04 159.32 41.95 159.00 40.00 Z"/>
</g>
<g fill="#400000" fill-opacity="0.12" stroke="None">
<path d="
M 189.00 46.00 
C 188.91 43.26 185.98 41.54 184.00 40.00
C 184.09 42.74 187.02 44.46 189.00 46.00 Z"/>
</g>
<g fill="#260000" fill-opacity="0.07" stroke="None">
<path d="
M 40.00 64.00 
C 48.28 61.00 50.13 50.99 44.25 44.75 C 38.37 38.51 27.69 40.85 28.02 50.98 C 28.36 61.10 46.96 57.04 39.00 48.00
C 44.36 58.43 26.88 57.59 29.03 49.03 C 31.18 40.46 39.63 40.66 44.23 46.77 C 48.83 52.88 44.97 59.83 40.00 64.00 Z"/>
</g>
<g fill="#210000" fill-opacity="0.06" stroke="None">
<path d="
M 207.00 42.00 
C 202.10 45.91 195.45 47.42 190.00 47.00
C 195.93 49.35 203.62 47.86 207.00 42.00 Z"/>
</g>
<g fill="#B80202" fill-opacity="0.31" stroke="None">
<path d="
M 149.00 48.00 
C 149.11 47.98 150.86 46.20 151.00 46.00
C 147.40 47.41 148.80 42.55 146.00 43.00
C 145.68 45.01 146.13 48.54 149.00 48.00 Z"/>
</g>
<g fill="#F50101" fill-opacity="0.38" stroke="None">
<path d="
M 100.00 47.00 
C 100.44 46.55 101.49 45.43 102.00 45.00
C 100.43 45.60 101.00 45.19 100.00 45.00
C 99.57 45.17 98.27 45.25 98.00 45.00
C 98.69 46.35 97.90 47.12 100.00 47.00 Z"/>
</g>
<g fill="#250000" fill-opacity="0.11" stroke="None">
<path d="
M 158.00 47.00 
C 154.05 50.74 148.61 52.23 144.00 48.00
C 146.51 54.26 156.31 52.87 158.00 47.00 Z"/>
</g>
<g fill="#1B0000" fill-opacity="0.08" stroke="None">
<path d="
M 126.00 62.00 
C 125.51 62.07 125.00 62.00 125.00 62.00
C 120.21 67.07 113.96 67.36 109.26 61.74 C 104.55 56.13 112.93 46.42 118.69 52.31 C 124.45 58.19 110.03 63.73 112.00 54.00
C 107.77 61.25 120.49 63.83 120.99 56.01 C 121.50 48.19 112.84 49.20 108.00 51.00
C 101.84 63.74 117.00 72.28 126.00 62.00 Z"/>
</g>
<g fill="#E60101" fill-opacity="0.17" stroke="None">
<path d="
M 168.00 53.00 
C 167.81 54.97 165.39 56.34 164.00 59.00
C 165.57 56.68 170.22 55.44 170.00 52.00
C 169.72 52.06 168.93 51.27 169.00 51.00
C 168.36 52.07 168.16 51.41 168.00 53.00 Z"/>
</g>
<g fill="#EB0303" fill-opacity="0.82" stroke="None">
<path d="
M 170.00 52.00 
C 170.22 55.44 165.57 56.68 164.00 59.00
C 164.06 60.44 162.08 59.74 162.00 61.00
C 168.00 60.28 173.03 60.27 179.00 61.00
C 175.73 58.41 173.21 51.28 170.00 52.00 Z"/>
</g>
<g fill="#DE0303" fill-opacity="0.69" stroke="None">
<path d="
M 64.00 66.00 
C 64.09 65.91 65.10 64.51 65.00 66.00
C 67.05 64.01 67.87 63.58 70.00 63.00
C 70.62 61.29 73.29 61.63 74.00 60.00
C 69.61 58.98 67.56 53.38 64.00 52.00
C 66.04 55.36 60.98 63.99 64.00 66.00 Z"/>
</g>
<g fill="#D10100" fill-opacity="0.25" stroke="None">
<path d="
M 18.00 55.00 
C 18.31 55.82 19.98 59.57 21.00 60.00
C 20.90 59.85 21.99 59.18 22.00 59.00
C 22.06 57.72 20.47 54.27 19.00 54.00
C 19.06 54.29 17.99 54.97 18.00 55.00 Z"/>
</g>
<g fill="#EE0303" fill-opacity="0.71" stroke="None">
<path d="
M 95.00 56.00 
C 92.10 58.13 88.71 59.88 86.00 62.00
C 89.29 62.55 91.94 64.73 95.00 66.00
C 95.00 62.67 95.00 59.33 95.00 56.00 Z"/>
</g>
<g fill="#CE0000" fill-opacity="0.29" stroke="None">
<path d="
M 125.00 62.00 
C 125.00 62.00 125.51 62.07 126.00 62.00
C 126.70 61.20 128.68 60.70 128.00 59.00
C 127.90 58.74 127.05 58.35 127.00 58.00
C 125.31 57.66 124.70 61.03 125.00 62.00 Z"/>
</g>
<g fill="#190000" fill-opacity="0.06" stroke="None">
<path d="
M 21.00 60.00 
C 25.42 64.44 33.56 68.84 39.00 64.00
C 32.13 69.14 27.26 60.11 22.00 59.00
C 21.99 59.18 20.90 59.85 21.00 60.00 Z"/>
</g>
<g fill="#190000" fill-opacity="0.04" stroke="None">
<path d="
M 233.00 69.00 
C 223.27 79.86 246.81 79.56 240.75 68.25 C 234.69 56.93 220.88 69.45 226.00 77.00
C 224.18 70.30 232.79 59.87 238.74 68.26 C 244.70 76.65 227.85 80.04 233.00 69.00 Z"/>
</g>
<g fill="#EE0000" fill-opacity="0.06" stroke="None">
<path d="
M 64.00 66.00 
C 62.97 67.00 61.89 68.77 61.00 70.00
C 62.00 68.86 63.84 67.12 65.00 66.00
C 65.10 64.51 64.09 65.91 64.00 66.00 Z"/>
</g>
<g fill="#250000" fill-opacity="0.04" stroke="None">
<path d="
M 143.00 69.00 
C 142.49 69.55 142.36 70.40 142.00 71.00
C 143.95 70.11 146.07 69.17 147.00 67.00
C 145.36 66.86 144.23 68.13 143.00 69.00 Z"/>
</g>
<g fill="#EE0303" fill-opacity="0.28" stroke="None">
<path d="
M 250.00 73.00 
C 250.26 72.72 251.84 72.47 252.00 72.00
C 252.18 70.35 251.84 68.49 250.00 68.00
C 250.62 69.16 249.18 72.01 250.00 73.00 Z"/>
</g>
<g fill="#F20000" fill-opacity="0.14" stroke="None">
<path d="
M 141.00 71.00 
C 140.05 72.23 139.04 73.95 138.00 75.00
C 139.50 73.75 140.92 72.78 142.00 71.00
C 142.36 70.40 142.49 69.55 143.00 69.00
C 142.03 69.69 141.75 70.03 141.00 71.00 Z"/>
</g>
<g fill="#1B0000" fill-opacity="0.07" stroke="None">
<path d="
M 133.00 81.00 
C 130.50 79.50 133.06 77.69 135.00 78.00
C 135.52 76.47 136.85 75.95 138.00 75.00
C 139.04 73.95 140.05 72.23 141.00 71.00
C 133.45 78.00 123.96 81.79 114.00 82.00
C 117.84 82.57 122.91 80.81 126.00 83.00
C 112.00 88.21 117.84 106.57 108.00 114.00
C 110.70 114.00 112.17 110.75 115.00 111.00
C 112.63 97.39 120.88 84.80 133.00 81.00 Z"/>
</g>
<g fill="#270000" fill-opacity="0.08" stroke="None">
<path d="
M 90.00 86.00 
C 94.06 74.08 76.38 69.54 72.00 80.00
C 78.37 72.42 90.85 75.05 90.00 86.00 Z"/>
</g>
<g fill="#2E0000" fill-opacity="0.07" stroke="None">
<path d="
M 249.00 76.00 
C 243.73 84.59 232.06 85.80 226.00 78.00
C 229.81 88.31 246.77 86.10 249.00 76.00 Z"/>
</g>
<g fill="#250000" fill-opacity="0.06" stroke="None">
<path d="
M 113.00 80.00 
C 109.92 80.26 107.67 78.06 105.00 77.00
C 105.31 79.81 110.94 82.26 113.00 80.00 Z"/>
</g>
<g fill="#F70101" fill-opacity="0.36" stroke="None">
<path d="
M 133.00 81.00 
C 133.35 80.89 133.79 80.31 134.00 80.00
C 134.21 79.69 134.88 79.26 135.00 79.00
C 135.00 79.00 134.85 78.45 135.00 78.00
C 133.06 77.69 130.50 79.50 133.00 81.00 Z"/>
</g>
<g fill="#050000" fill-opacity="0.02" stroke="None">
<path d="
M 135.00 79.00 
C 134.88 79.26 134.21 79.69 134.00 80.00
C 140.93 78.19 146.36 80.40 153.00 81.00
C 153.32 81.03 153.74 80.10 154.00 80.00
C 148.72 78.17 140.37 76.55 135.00 79.00 Z"/>
</g>
<g fill="#BE0201" fill-opacity="0.20" stroke="None">
<path d="
M 153.00 81.00 
C 153.88 81.36 155.98 82.49 157.00 83.00
C 156.75 82.70 157.00 82.00 157.00 82.00
C 156.77 80.28 155.15 80.40 154.00 80.00
C 153.74 80.10 153.32 81.03 153.00 81.00 Z"/>
</g>
<g fill="#120000" fill-opacity="0.04" stroke="None">
<path d="
M 55.00 81.00 
C 51.90 85.14 53.39 91.08 54.00 96.00
C 51.22 92.28 46.31 85.03 41.00 88.00
C 54.20 89.93 58.50 108.10 51.00 118.00
C 61.48 107.94 52.10 94.04 55.00 81.00 Z"/>
</g>
<g fill="#1E0000" fill-opacity="0.05" stroke="None">
<path d="
M 72.00 81.00 
C 64.45 90.96 81.99 104.71 91.00 97.00
C 81.16 101.45 67.99 91.61 72.00 81.00 Z"/>
</g>
<g fill="#0E0000" fill-opacity="0.02" stroke="None">
<path d="
M 79.00 81.00 
C 74.67 84.36 78.90 87.38 79.00 81.00 Z"/>
</g>
<g fill="#220000" fill-opacity="0.10" stroke="None">
<path d="
M 157.00 83.00 
C 157.98 84.19 159.78 85.08 161.00 86.00
C 161.03 86.07 161.70 84.85 161.00 84.00
C 160.04 83.38 158.12 82.17 157.00 82.00
C 157.00 82.00 156.75 82.70 157.00 83.00 Z"/>
</g>
<g fill="#E30101" fill-opacity="0.17" stroke="None">
<path d="
M 161.00 86.00 
C 162.22 86.91 163.46 88.18 165.00 89.00
C 164.97 88.30 163.40 86.54 163.00 86.00
C 162.30 85.06 162.05 84.68 161.00 84.00
C 161.70 84.85 161.03 86.07 161.00 86.00 Z"/>
</g>
<g fill="#FE0000" fill-opacity="0.20" stroke="None">
<path d="
M 34.00 85.00 
C 31.39 85.14 28.61 85.14 26.00 85.00
C 28.80 85.46 31.14 85.46 34.00 85.00 Z"/>
</g>
<g fill="#1D0000" fill-opacity="0.07" stroke="None">
<path d="
M 165.00 89.00 
C 165.05 90.10 160.05 94.79 159.00 96.00
C 159.46 95.87 160.00 96.00 160.00 96.00
C 163.07 93.87 164.75 90.13 169.00 90.00
C 167.24 88.68 164.80 87.85 163.00 86.00
C 163.40 86.54 164.97 88.30 165.00 89.00 Z"/>
</g>
<g fill="#210000" fill-opacity="0.08" stroke="None">
<path d="
M 89.00 87.00 
C 86.00 90.07 81.23 89.31 78.00 87.00
C 78.51 91.14 88.81 91.81 89.00 87.00 Z"/>
</g>
<g fill="#1F0000" fill-opacity="0.05" stroke="None">
<path d="
M 170.00 115.00 
C 177.13 125.59 193.70 117.68 193.65 105.69 C 193.60 93.71 181.23 84.80 170.00 89.00
C 181.09 87.26 192.42 94.32 191.99 105.99 C 191.56 117.66 178.65 122.43 170.00 115.00 Z"/>
</g>
<g fill="#1C0000" fill-opacity="0.07" stroke="None">
<path d="
M 25.00 93.00 
C 16.14 99.32 25.25 116.70 35.00 113.00
C 25.08 113.08 19.67 100.87 25.00 93.00 Z"/>
</g>
<g fill="#070000" fill-opacity="0.03" stroke="None">
<path d="
M 209.00 120.00 
C 208.60 120.24 210.41 120.48 211.00 120.00
C 215.11 112.42 216.39 102.14 214.00 94.00
C 214.26 103.13 214.50 112.85 209.00 120.00 Z"/>
</g>
<g fill="#260000" fill-opacity="0.06" stroke="None">
<path d="
M 40.00 97.00 
C 33.52 93.20 26.92 98.44 30.08 104.92 C 33.25 111.39 42.00 104.67 37.00 101.00
C 39.92 106.26 30.27 108.09 30.03 102.03 C 29.78 95.96 37.12 97.57 40.00 97.00 Z"/>
</g>
<g fill="#1E0000" fill-opacity="0.07" stroke="None">
<path d="
M 147.00 99.00 
C 147.29 99.13 150.89 100.77 150.00 100.00
C 144.17 94.52 133.09 93.91 129.00 102.00
C 134.44 97.30 140.23 95.91 147.00 99.00 Z"/>
</g>
<g fill="#A40000" fill-opacity="0.13" stroke="None">
<path d="
M 156.00 100.00 
C 156.04 99.87 157.00 100.00 157.00 100.00
C 158.04 99.14 159.40 97.41 160.00 96.00
C 160.00 96.00 159.46 95.87 159.00 96.00
C 157.42 96.45 155.92 98.36 156.00 100.00 Z"/>
</g>
<g fill="#270000" fill-opacity="0.08" stroke="None">
<path d="
M 36.00 113.00 
C 43.54 112.96 46.61 102.27 41.00 98.00
C 44.41 104.16 41.83 110.02 36.00 113.00 Z"/>
</g>
<g fill="#F00000" fill-opacity="0.19" stroke="None">
<path d="
M 150.00 100.00 
C 150.89 100.77 147.29 99.13 147.00 99.00
C 147.42 99.24 153.66 103.13 150.00 100.00 Z"/>
</g>
<g fill="#150000" fill-opacity="0.07" stroke="None">
<path d="
M 179.00 99.00 
C 171.38 97.24 165.03 106.90 169.00 113.00
C 167.11 105.81 172.91 100.14 179.00 99.00 Z"/>
</g>
<g fill="#0F0000" fill-opacity="0.06" stroke="None">
<path d="
M 157.00 100.00 
C 157.00 100.00 156.04 99.87 156.00 100.00
C 154.92 104.69 153.90 108.68 151.00 103.00
C 152.25 113.42 153.67 123.55 163.00 130.00
C 151.86 122.31 157.53 110.02 157.00 100.00 Z"/>
</g>
<g fill="#120000" fill-opacity="0.02" stroke="None">
<path d="
M 184.00 110.00 
C 185.09 106.37 184.87 100.59 180.00 100.00
C 183.54 102.44 182.34 107.03 184.00 110.00 Z"/>
</g>
<g fill="#110000" fill-opacity="0.04" stroke="None">
<path d="
M 129.00 103.00 
C 126.70 106.35 127.77 113.03 132.00 115.00
C 130.37 111.23 127.91 107.66 129.00 103.00 Z"/>
</g>
<g fill="#1C0000" fill-opacity="0.05" stroke="None">
<path d="
M 133.00 115.00 
C 138.78 119.60 146.20 114.42 143.97 107.03 C 141.75 99.63 128.54 103.85 135.00 111.00
C 131.49 105.48 140.65 100.52 143.00 107.00 C 145.35 113.48 138.00 117.42 133.00 115.00 Z"/>
</g>
<g fill="#050000" fill-opacity="0.04" stroke="None">
<path d="
M 64.00 111.00 
C 62.47 109.31 61.52 106.38 60.00 105.00
C 55.63 103.01 62.51 109.73 64.00 111.00 Z"/>
</g>
<g fill="#DB0000" fill-opacity="0.34" stroke="None">
<path d="
M 64.00 111.00 
C 66.12 112.81 67.03 113.75 69.00 115.00
C 69.03 115.01 69.76 113.91 70.00 114.00
C 66.97 111.63 63.77 106.71 60.00 105.00
C 61.52 106.38 62.47 109.31 64.00 111.00 Z"/>
</g>
<g fill="#3C0000" fill-opacity="0.07" stroke="None">
<path d="
M 127.00 126.00 
C 122.42 121.66 117.77 117.54 115.00 112.00
C 115.71 118.44 121.08 123.80 127.00 126.00 Z"/>
</g>
<g fill="#150000" fill-opacity="0.05" stroke="None">
<path d="
M 69.00 115.00 
C 79.18 121.91 98.39 122.79 107.00 114.00
C 96.43 120.08 80.02 121.83 70.00 114.00
C 69.76 113.91 69.03 115.01 69.00 115.00 Z"/>
</g>
<g fill="#650000" fill-opacity="0.11" stroke="None">
<path d="
M 46.00 123.00 
C 45.77 123.34 46.00 124.00 46.00 124.00
C 47.67 122.41 51.19 121.88 51.00 119.00
C 49.16 120.23 47.25 121.17 46.00 123.00 Z"/>
</g>
<g fill="#250000" fill-opacity="0.09" stroke="None">
<path d="
M 151.00 119.00 
C 144.59 124.78 136.09 128.20 128.00 127.00
C 136.58 129.94 146.14 126.92 151.00 119.00 Z"/>
</g>
<g fill="#FE0000" fill-opacity="0.29" stroke="None">
<path d="
M 208.00 122.00 
C 207.90 122.77 208.02 123.52 207.00 125.00
C 208.64 123.25 209.84 122.30 211.00 120.00
C 210.41 120.48 208.60 120.24 209.00 120.00
C 208.25 120.98 208.52 120.82 208.00 122.00 Z"/>
</g>
<g fill="#000000" fill-opacity="0.00" stroke="None">
<path d="
M 206.00 125.00 
C 204.72 126.69 203.25 128.37 202.00 130.00
C 203.57 128.42 205.42 126.69 207.00 125.00
C 208.02 123.52 207.90 122.77 208.00 122.00
C 207.54 123.05 206.71 124.07 206.00 125.00 Z"/>
</g>
<g fill="#CD0000" fill-opacity="0.18" stroke="None">
<path d="
M 18.00 125.00 
C 18.77 126.00 19.75 126.48 21.00 127.00
C 21.24 126.92 21.68 125.97 22.00 126.00
C 20.61 125.39 18.59 123.86 17.00 123.00
C 17.29 123.23 17.70 124.62 18.00 125.00 Z"/>
</g>
<g fill="#150000" fill-opacity="0.04" stroke="None">
<path d="
M 22.00 126.00 
C 21.68 125.97 21.24 126.92 21.00 127.00
C 28.03 129.91 40.50 130.15 46.00 124.00
C 46.00 124.00 45.77 123.34 46.00 123.00
C 41.69 124.35 38.89 126.50 34.22 127.22 C 29.55 127.94 26.55 126.43 22.00 126.00 Z"/>
</g>
<g fill="#F30000" fill-opacity="0.08" stroke="None">
<path d="
M 201.00 130.00 
C 200.68 130.53 200.35 131.58 200.00 132.00
C 200.92 131.30 201.26 130.96 202.00 130.00
C 203.25 128.37 204.72 126.69 206.00 125.00
C 204.44 126.70 202.31 127.85 201.00 130.00 Z"/>
</g>
<g fill="#360000" fill-opacity="0.09" stroke="None">
<path d="
M 172.00 135.00 
C 169.93 132.75 166.35 132.25 164.00 130.00
C 164.28 133.56 169.06 134.70 172.00 135.00 Z"/>
</g>
<g fill="#260000" fill-opacity="0.09" stroke="None">
<path d="
M 200.00 132.00 
C 200.35 131.58 200.68 130.53 201.00 130.00
C 198.60 132.09 195.18 132.89 193.00 135.00
C 195.77 135.32 198.11 133.45 200.00 132.00 Z"/>
</g>
<g fill="#020000" fill-opacity="0.02" stroke="None">
<path d="
M 186.00 136.00 
C 183.73 136.13 181.27 136.15 179.00 136.00
C 177.07 136.06 174.37 133.62 173.00 136.00
C 178.88 136.69 187.02 138.92 192.00 135.00
C 189.76 134.97 188.19 135.87 186.00 136.00 Z"/>
</g>
<g fill="#FE0000" fill-opacity="0.73" stroke="None">
<path d="
M 179.00 136.00 
C 181.27 136.15 183.73 136.13 186.00 136.00
C 184.36 135.93 180.69 135.94 179.00 136.00 Z"/>
</g>
</svg>